Coordinates
version=1
nRows=13
nColumns=36
inDegrees=yes

Units are S.I. units (second, meters, Newtons, ...)
If the header above contains a line with 'inDegrees', this indicates whether rotational values are in degrees (yes) or radians (no).

endheader
time	pelvis_tilt	pelvis_list	pelvis_rotation	pelvis_tx	pelvis_ty	pelvis_tz	hip_flexion_r	hip_adduction_r	hip_rotation_r	knee_angle_r	knee_angle_r_beta	ankle_angle_r	subtalar_angle_r	mtp_angle_r	hip_flexion_l	hip_adduction_l	hip_rotation_l	knee_angle_l	knee_angle_l_beta	ankle_angle_l	subtalar_angle_l	mtp_angle_l	lumbar_extension	lumbar_bending	lumbar_rotation	arm_flex_r	arm_add_r	arm_rot_r	elbow_flex_r	pro_sup_r	arm_flex_l	arm_add_l	arm_rot_l	elbow_flex_l	pro_sup_l
      0.35000000	      4.21085446	     -1.69815688	      1.89348526	      0.30604284	      0.91338391	     -0.21942261	     -4.15162281	      4.45266770	     -1.60330315	     12.86874206	      0.22460192	     11.49920192	     -3.69689635	     -6.33181505	     24.25833011	     -4.85098417	     -7.84797133	     59.00921111	      1.02990502	      1.77164993	      1.84653982	     -6.33181505	    -16.66568924	      1.22273478	      4.02706786	      9.54384254	    -11.14076226	      4.21506721	     25.02894708	     90.93404607	      5.67673621	     -5.35764085	      5.75416800	     25.70069452	     89.08204410
      0.36000000	      4.26544508	     -1.82358174	      1.76209260	      0.31677786	      0.91303032	     -0.21856993	     -5.00364448	      4.58007973	     -1.95221252	     12.80060477	      0.22341270	     12.06345406	     -2.85149067	     -6.37012453	     24.98787051	     -5.09076957	     -8.43526136	     57.02739643	      0.99531583	      1.57174154	      0.32404398	     -6.37012453	    -16.77783122	      0.96743939	      4.44948069	     10.07432320	    -11.37631719	      4.57611933	     25.25855812	     91.41329264	      5.65484237	     -5.35578948	      5.31365215	     25.76683103	     89.18489124
      0.37000000	      4.12130599	     -1.98143605	      1.59461317	      0.32751470	      0.91223717	     -0.21770213	     -5.59298157	      4.75738598	     -1.97907235	     12.81451587	      0.22365549	     12.25723720	     -2.54669077	     -6.38212992	     25.84875842	     -5.39594052	     -9.03039927	     54.95765812	      0.95919208	      1.95710664	     -0.34253699	     -6.38212992	    -16.65168582	      0.71343263	      4.93333355	     10.56183695	    -11.52636444	      4.69000359	     25.41369268	     91.56173249	      5.63547489	     -5.39974037	      5.16156052	     25.80290186	     89.21566565
      0.38000000	      4.06488990	     -2.10465339	      1.44097010	      0.33827878	      0.91139176	     -0.21694348	     -6.25674514	      4.88974867	     -2.00085167	     12.91637455	      0.22543326	     12.68962338	     -2.13881295	     -6.39850168	     26.49257587	     -5.64496978	     -9.62746556	     52.67683238	      0.91938416	      2.13937865	     -1.34490530	     -6.39850168	    -16.63629026	      0.42129168	      5.44943975	     10.98811984	    -11.72973610	      4.87556985	     25.56748607	     91.76420733	      5.68276302	     -5.41527144	      4.92007128	     25.81977213	     89.24696023
      0.39000000	      3.86270385	     -2.32989080	      1.30539970	      0.34901647	      0.91014816	     -0.21628142	     -6.73321630	      5.11666148	     -2.07223016	     13.03392765	      0.22748495	     12.98254446	     -1.86359246	     -6.40868616	     27.25900631	     -5.95638945	    -10.01221700	     50.33522957	      0.87851549	      2.36283490	     -1.86824227	     -6.40868616	    -16.45139714	      0.25318838	      5.89328926	     11.46708359	    -11.82333888	      4.98379591	     25.74484804	     91.89490896	      5.72130270	     -5.42899088	      4.75675391	     25.82639638	     89.26330537
      0.40000000	      3.73959903	     -2.44726704	      1.16200467	      0.35984388	      0.90888501	     -0.21578748	     -7.21590491	      5.16234862	     -2.50613714	     13.35888843	      0.23315659	     13.87585926	     -0.78852754	     -6.45567391	     27.78899845	     -6.10301363	    -10.36980791	     47.72955234	      0.83303784	      2.15140933	     -2.93229073	     -6.45567391	    -16.36689548	     -0.07052213	      6.31531165	     11.88557410	    -11.96018493	      5.26920247	     25.85711576	     92.39926256	      5.77448878	     -5.35678696	      4.19712366	     25.81218753	     89.34460674
      0.41000000	      3.43214900	     -2.64219360	      1.04382230	      0.37063777	      0.90721613	     -0.21537235	     -7.52687561	      5.35171619	     -2.45312654	     13.61022226	      0.23754319	     14.13858190	     -0.67233359	     -6.46649803	     28.48780386	     -6.33573259	    -10.62527179	     45.09395344	      0.78703796	      2.53837132	     -2.87962080	     -6.46649803	    -16.06627309	     -0.29605323	      6.74951528	     12.23750535	    -12.06423315	      5.29922809	     25.96813217	     92.50996533	      5.81187145	     -5.36115015	      4.06901027	     25.82721403	     89.36193340
      0.42000000	      3.13980066	     -2.81802636	      0.89728083	      0.38148998	      0.90544550	     -0.21501423	     -7.83105312	      5.50591852	     -2.43234384	     13.91740260	      0.24290450	     14.50295260	     -0.54361367	     -6.47740179	     29.07035529	     -6.54016419	    -10.83377506	     42.31781221	      0.73858516	      2.82799639	     -2.68781776	     -6.47740179	    -15.78823029	     -0.55587118	      7.22302828	     12.54775169	    -12.15022666	      5.32527111	     26.09959442	     92.62312412	      5.89384507	     -5.34588370	      3.91039491	     25.79037322	     89.36436741
      0.43000000	      2.86699888	     -2.94360009	      0.71980171	      0.39241775	      0.90362906	     -0.21475880	     -8.12352831	      5.57593117	     -2.50846913	     14.30240755	      0.24962410	     14.99843639	     -0.31713623	     -6.49287173	     29.51600356	     -6.69919195	    -11.04955285	     39.40471301	      0.68774198	      3.06635786	     -2.30475504	     -6.49287173	    -15.53377368	     -0.88643632	      7.72507491	     12.80150586	    -12.22950183	      5.32255663	     26.23849572	     92.77357137	      6.02527058	     -5.30806973	      3.69837042	     25.70844372	     89.35603572
      0.44000000	      2.49797824	     -3.18702246	      0.55279710	      0.40342362	      0.90157258	     -0.21465033	     -8.34234650	      5.78610874	     -2.41196691	     14.62127073	      0.25518932	     15.19656918	     -0.13428302	     -6.50018964	     30.04746663	     -6.94163031	    -11.05885338	     36.49858704	      0.63702052	      3.37044395	     -1.88772182	     -6.50018964	    -15.16172277	     -1.06061870	      8.14617193	     13.06135013	    -12.28147374	      5.31102443	     26.36322526	     92.84782539	      6.05597685	     -5.28506907	      3.58992510	     25.68317179	     89.34799384
      0.45000000	      2.18056515	     -3.24837839	      0.31481576	      0.41455857	      0.89959410	     -0.21458002	     -8.58768010	      5.76337991	     -2.38500531	     15.03083099	      0.26233749	     15.55498911	      0.03646780	     -6.51010649	     30.33862312	     -7.01524176	    -11.16504734	     33.39640062	      0.58287715	      3.69768842	     -1.23199500	     -6.51010649	    -14.85086607	     -1.47828781	      8.66500878	     13.23829469	    -12.32256211	      5.28524158	     26.46169938	     92.94131776	      6.18488286	     -5.25791765	      3.42089127	     25.61546278	     89.32277798
      0.46000000	      2.00092633	     -3.28302772	      0.06988285	      0.42593987	      0.89774182	     -0.21468202	     -8.96878576	      5.62009214	     -2.82516130	     15.50581556	      0.27062753	     16.35813999	      1.16109547	     -6.56062739	     30.40477034	     -7.14364533	    -11.54020890	     30.31808036	      0.52915033	      4.32180127	      0.03421009	     -6.56062739	    -14.70092457	     -1.91329165	      9.20142325	     13.32873954	    -12.32757063	      4.94073488	     26.67078131	     93.33704497	      6.35468446	     -5.16853169	      3.02400624	     25.46197420	     89.23864506
      0.47000000	      1.60016000	     -3.39818384	     -0.20130242	      0.43737913	      0.89559847	     -0.21483675	     -9.18845653	      5.65260939	     -2.62691687	     15.82868960	      0.27626275	     16.43332517	      1.22074361	     -6.56902388	     30.68034901	     -7.27342068	    -11.52378814	     27.26292006	      0.47582772	      4.83411809	      0.63102732	     -6.56902388	    -14.29128012	     -2.25162073	      9.63196490	     13.46613305	    -12.30714134	      4.93365756	     26.73462285	     93.40744701	      6.36282229	     -5.17025516	      2.92682153	     25.43908583	     89.21707399
